<svg xmlns="http://www.w3.org/2000/svg" style="position: absolute; width: 0; height: 0; overflow: hidden; ">

<symbol id="icon-triangle-alert" viewBox="0 0 512 512">
<path d="M256 32c14.2 0 27.3 7.5 34.5 19.8l216 368c7.3 12.4 7.3 27.7 .2 40.1S486.3 480 472 480H40c-14.3 0-27.6-7.7-34.7-20.1s-7-27.8 .2-40.1l216-368C228.7 39.5 241.8 32 256 32zm0 128c-13.3 0-24 10.7-24 24V296c0 13.3 10.7 24 24 24s24-10.7 24-24V184c0-13.3-10.7-24-24-24zm32 224a32 32 0 1 0 -64 0 32 32 0 1 0 64 0z"/>
</symbol>
<symbol id="icon-note-sticky" viewBox="0 0 448 512"><path d="M64 32C28.7 32 0 60.7 0 96V416c0 35.3 28.7 64 64 64H288V368c0-26.5 21.5-48 48-48H448V96c0-35.3-28.7-64-64-64H64zM448 352H402.7 336c-8.8 0-16 7.2-16 16v66.7V480l32-32 64-64 32-32z"/>
</symbol>
<symbol id="icon-face-frown" viewBox="0 0 512 512"><path d="M464 256A208 208 0 1 0 48 256a208 208 0 1 0 416 0zM0 256a256 256 0 1 1 512 0A256 256 0 1 1 0 256zM182.4 382.5c-12.4 5.2-26.5-4.1-21.1-16.4c16-36.6 52.4-62.1 94.8-62.1s78.8 25.6 94.8 62.1c5.4 12.3-8.7 21.6-21.1 16.4c-22.4-9.5-47.4-14.8-73.7-14.8s-51.3 5.3-73.7 14.8zM144.4 208a32 32 0 1 1 64 0 32 32 0 1 1 -64 0zm192-32a32 32 0 1 1 0 64 32 32 0 1 1 0-64z"/></symbol>
<symbol id="icon-search" viewBox="0 0 512 512">
<path d="M416 208c0 45.9-14.9 88.3-40 122.7L502.6 457.4c12.5 12.5 12.5 32.8 0 45.3s-32.8 12.5-45.3 0L330.7 376c-34.4 25.2-76.8 40-122.7 40C93.1 416 0 322.9 0 208S93.1 0 208 0S416 93.1 416 208zM208 352a144 144 0 1 0 0-288 144 144 0 1 0 0 288z"/>
</symbol>
<symbol id="icon-bookmark" viewBox="0 0 384 512"><path d="M0 48V487.7C0 501.1 10.9 512 24.3 512c5 0 9.9-1.5 14-4.4L192 400 345.7 507.6c4.1 2.9 9 4.4 14 4.4c13.4 0 24.3-10.9 24.3-24.3V48c0-26.5-21.5-48-48-48H48C21.5 0 0 21.5 0 48z"/></symbol>
<symbol id="icon-arrow-left"  viewBox="0 0 448 512"><path d="M9.4 233.4c-12.5 12.5-12.5 32.8 0 45.3l160 160c12.5 12.5 32.8 12.5 45.3 0s12.5-32.8 0-45.3L109.2 288 416 288c17.7 0 32-14.3 32-32s-14.3-32-32-32l-306.7 0L214.6 118.6c12.5-12.5 12.5-32.8 0-45.3s-32.8-12.5-45.3 0l-160 160z"/>
</symbol>
<symbol id="icon-arrow-right"  viewBox="0 0 448 512"><path d="M438.6 278.6c12.5-12.5 12.5-32.8 0-45.3l-160-160c-12.5-12.5-32.8-12.5-45.3 0s-12.5 32.8 0 45.3L338.8 224 32 224c-17.7 0-32 14.3-32 32s14.3 32 32 32l306.7 0L233.4 393.4c-12.5 12.5-12.5 32.8 0 45.3s32.8 12.5 45.3 0l160-160z"/>
</symbol>
<symbol id="icon-start-message" viewBox="0 0 384 512"><path d="M32 0C14.3 0 0 14.3 0 32S14.3 64 32 64V75c0 42.4 16.9 83.1 46.9 113.1L146.7 256 78.9 323.9C48.9 353.9 32 394.6 32 437v11c-17.7 0-32 14.3-32 32s14.3 32 32 32H64 320h32c17.7 0 32-14.3 32-32s-14.3-32-32-32V437c0-42.4-16.9-83.1-46.9-113.1L237.3 256l67.9-67.9c30-30 46.9-70.7 46.9-113.1V64c17.7 0 32-14.3 32-32s-14.3-32-32-32H320 64 32zM288 437v11H96V437c0-25.5 10.1-49.9 28.1-67.9L192 301.3l67.9 67.9c18 18 28.1 42.4 28.1 67.9z"/></symbol>
<symbol id="icon-loader" viewBox="0 0 512 512"><path d="M304 48a48 48 0 1 0 -96 0 48 48 0 1 0 96 0zm0 416a48 48 0 1 0 -96 0 48 48 0 1 0 96 0zM48 304a48 48 0 1 0 0-96 48 48 0 1 0 0 96zm464-48a48 48 0 1 0 -96 0 48 48 0 1 0 96 0zM142.9 437A48 48 0 1 0 75 369.1 48 48 0 1 0 142.9 437zm0-294.2A48 48 0 1 0 75 75a48 48 0 1 0 67.9 67.9zM369.1 437A48 48 0 1 0 437 369.1 48 48 0 1 0 369.1 437z"/></symbol>
<symbol id="icon-circle-exclamation"  viewBox="0 0 512 512"><path d="M256 512A256 256 0 1 0 256 0a256 256 0 1 0 0 512zm0-384c13.3 0 24 10.7 24 24V264c0 13.3-10.7 24-24 24s-24-10.7-24-24V152c0-13.3 10.7-24 24-24zM224 352a32 32 0 1 1 64 0 32 32 0 1 1 -64 0z"/></symbol>
<symbol id="icon-lock" viewBox="0 0 448 512"><path d="M144 144v48H304V144c0-44.2-35.8-80-80-80s-80 35.8-80 80zM80 192V144C80 64.5 144.5 0 224 0s144 64.5 144 144v48h16c35.3 0 64 28.7 64 64V448c0 35.3-28.7 64-64 64H64c-35.3 0-64-28.7-64-64V256c0-35.3 28.7-64 64-64H80z"/></symbol>
<symbol id="icon-download" viewBox="0 0 512 512"><path d="M288 32c0-17.7-14.3-32-32-32s-32 14.3-32 32V274.7l-73.4-73.4c-12.5-12.5-32.8-12.5-45.3 0s-12.5 32.8 0 45.3l128 128c12.5 12.5 32.8 12.5 45.3 0l128-128c12.5-12.5 12.5-32.8 0-45.3s-32.8-12.5-45.3 0L288 274.7V32zM64 352c-35.3 0-64 28.7-64 64v32c0 35.3 28.7 64 64 64H448c35.3 0 64-28.7 64-64V416c0-35.3-28.7-64-64-64H346.5l-45.3 45.3c-25 25-65.5 25-90.5 0L165.5 352H64zm368 56a24 24 0 1 1 0 48 24 24 0 1 1 0-48z"/></symbol>
</svg>
